<?xml version="1.0" standalone="no"?>
<!DOCTYPE svg PUBLIC "-//W3C//DTD SVG 20010904//EN"
 "http://www.w3.org/TR/2001/REC-SVG-20010904/DTD/svg10.dtd">
<svg version="1.0" xmlns="http://www.w3.org/2000/svg"
 width="211.000000pt" height="239.000000pt" viewBox="0 0 211.000000 239.000000"
 preserveAspectRatio="xMidYMid meet">
<metadata>
Created by potrace 1.15, written by Peter Selinger 2001-2017
</metadata>
<g transform="translate(0.000000,239.000000) scale(0.100000,-0.100000)"
fill="#cc99ff" stroke="none">
<path d="M450 2369 c-13 -6 -33 -17 -42 -26 -17 -15 -18 -15 -18 0 0 32 -60
17 -107 -26 -21 -18 -23 -19 -23 -3 0 9 -4 14 -10 11 -5 -3 -10 -2 -10 4 0 5
-12 9 -27 8 -38 -3 -76 -75 -70 -130 5 -34 3 -37 -14 -32 -29 9 -25 -30 6 -61
18 -18 23 -29 16 -38 -6 -7 -8 -22 -4 -34 4 -17 13 -22 37 -22 73 -1 65 -32
-11 -45 -63 -10 -135 -38 -146 -57 -23 -36 73 -122 131 -117 38 3 103 -11 130
-28 28 -17 16 -38 -28 -48 -16 -3 -31 -13 -34 -21 -3 -9 -1 -12 4 -9 15 9 12
0 -12 -41 -15 -26 -18 -39 -10 -42 15 -5 15 -35 0 -50 -9 -9 -8 -12 5 -12 13
0 17 -9 17 -40 0 -22 5 -40 10 -40 13 0 13 -46 -1 -90 -5 -19 -12 -42 -14 -50
-2 -8 -13 -37 -26 -65 -17 -38 -22 -66 -20 -120 2 -100 16 -140 67 -193 l45
-47 -6 -70 c-7 -81 -16 -225 -21 -340 -1 -44 -4 -89 -5 -100 -4 -52 11 -179
24 -198 7 -12 16 -39 20 -59 5 -33 2 -42 -26 -69 -30 -30 -30 -32 -12 -45 11
-8 43 -14 77 -14 49 0 63 4 83 25 14 13 25 31 25 38 0 8 12 23 27 32 37 24
111 105 119 130 4 11 13 28 21 37 8 9 19 34 24 55 22 87 44 284 42 374 l-2 96
92 6 c51 3 122 15 159 27 68 21 181 89 201 121 9 14 20 17 52 12 22 -3 44 -9
49 -14 6 -5 18 -9 29 -9 26 0 87 -49 87 -71 0 -10 9 -42 19 -71 11 -29 27 -84
37 -123 15 -64 48 -142 64 -155 4 -3 20 -27 35 -55 16 -27 32 -52 35 -55 3 -3
14 -25 25 -50 23 -51 83 -123 96 -114 5 3 6 -2 3 -10 -7 -17 25 -65 44 -66 6
0 12 -4 12 -10 0 -5 10 -18 22 -30 17 -15 18 -20 6 -20 -21 0 -68 -38 -68 -55
0 -16 86 -30 130 -20 19 4 40 21 57 45 21 29 37 40 65 44 21 4 38 11 38 16 0
6 6 10 13 10 16 0 77 62 77 78 0 7 6 23 14 35 24 39 27 110 6 151 -10 21 -16
44 -13 51 5 14 -41 65 -58 65 -5 0 -9 6 -9 14 0 7 -7 19 -15 26 -8 7 -15 25
-15 41 0 31 -56 93 -94 105 -11 4 -39 25 -61 48 -39 40 -40 42 -37 106 1 36
10 94 19 130 11 41 18 103 18 167 0 118 -11 141 -86 181 -49 26 -49 25 -30
103 12 49 17 57 45 65 24 7 34 18 45 49 17 52 25 128 11 120 -14 -9 -12 29 2
43 10 10 10 14 0 21 -9 6 -11 19 -7 45 7 37 -1 46 -24 24 -10 -11 -11 -7 -5
16 5 21 4 27 -5 22 -6 -4 -11 -2 -11 4 0 6 -4 9 -9 6 -5 -4 -12 7 -16 24 -4
16 -13 30 -21 30 -8 0 -14 7 -14 15 0 21 -8 19 -35 -12 -23 -26 -24 -26 -25
-7 0 11 11 31 25 44 14 13 25 33 25 44 0 12 4 27 9 35 7 10 3 23 -10 39 -10
14 -19 30 -19 37 0 14 -57 38 -70 30 -5 -3 -35 -8 -67 -11 -32 -2 -69 -13 -83
-23 -46 -33 -67 -132 -44 -214 7 -23 60 -50 84 -42 15 5 20 2 20 -12 0 -11 5
-24 12 -31 13 -13 -5 -23 -47 -26 -21 -1 -25 -6 -27 -36 -2 -54 1 -74 15 -85
6 -5 21 -27 32 -49 11 -21 26 -40 33 -43 7 -3 27 -20 46 -39 19 -19 43 -34 55
-34 27 0 27 -25 1 -68 -13 -21 -26 -32 -35 -28 -66 25 -113 30 -253 28 l-153
-2 -40 42 c-35 37 -39 47 -41 97 0 31 0 65 1 77 0 11 -8 30 -19 42 -11 11 -20
26 -20 33 0 6 -8 9 -18 7 -15 -4 -18 -1 -14 18 3 19 0 24 -16 24 -28 0 -51 28
-32 40 11 7 11 12 2 23 -7 8 -10 21 -6 30 8 23 -23 75 -59 97 -18 11 -26 20
-18 20 18 0 -24 47 -50 55 -10 3 -16 11 -13 18 2 7 -12 29 -31 50 -20 21 -35
44 -34 50 1 7 1 23 0 36 -1 21 -3 22 -18 10 -14 -13 -16 -11 -11 11 3 14 9 33
13 44 7 17 4 18 -28 14 -33 -4 -36 -2 -31 15 5 17 2 19 -20 15 -14 -3 -23 -1
-20 3 9 14 -31 10 -51 -5 -18 -13 -21 -11 -34 17 -12 28 -15 29 -18 12 -7 -29
-23 -43 -23 -19 0 10 -5 26 -10 34 -8 13 -13 13 -31 2 -20 -13 -21 -12 -15 12
3 14 5 26 4 25 -2 0 -14 -5 -28 -10z"/>
</g>
</svg>
